<mxfile host="app.diagrams.net" modified="2022-12-13T23:34:25.529Z" agent="5.0 (Windows NT 10.0; Win64; x64) AppleWebKit/537.36 (KHTML, like Gecko) Chrome/108.0.0.0 Safari/537.36" version="20.6.2" etag="I6kmqdFbcsPXmR3_F7FH" type="github">
  <diagram id="fmBw7mxjbvWGm2GWvBtQ" name="PÃ¡gina-1">
    <mxGraphModel dx="2062" dy="1114" grid="1" gridSize="10" guides="1" tooltips="1" connect="1" arrows="1" fold="1" page="1" pageScale="1" pageWidth="827" pageHeight="1169" math="0" shadow="0">
      <root>
        <mxCell id="0" />
        <mxCell id="1" parent="0" />
        <mxCell id="j1v4Q9wKb9o2JD1riZlh-1" value="" style="strokeWidth=2;html=1;shape=mxgraph.flowchart.database;whiteSpace=wrap;fillColor=#fad7ac;strokeColor=#b46504;" vertex="1" parent="1">
          <mxGeometry x="170" y="880" width="60" height="90" as="geometry" />
        </mxCell>
        <mxCell id="j1v4Q9wKb9o2JD1riZlh-2" value="" style="strokeWidth=2;html=1;shape=mxgraph.flowchart.database;whiteSpace=wrap;fillColor=#fad7ac;strokeColor=#b46504;" vertex="1" parent="1">
          <mxGeometry x="520" y="880" width="60" height="80" as="geometry" />
        </mxCell>
        <mxCell id="j1v4Q9wKb9o2JD1riZlh-3" value="" style="shape=actor;whiteSpace=wrap;html=1;" vertex="1" parent="1">
          <mxGeometry x="520" y="10" width="40" height="60" as="geometry" />
        </mxCell>
        <mxCell id="j1v4Q9wKb9o2JD1riZlh-5" value="Worker&lt;br&gt;API&lt;br&gt;Grpc Request" style="whiteSpace=wrap;html=1;aspect=fixed;fillColor=#e3c800;strokeColor=#B09500;fontColor=#000000;" vertex="1" parent="1">
          <mxGeometry x="40" y="310" width="190" height="190" as="geometry" />
        </mxCell>
        <mxCell id="j1v4Q9wKb9o2JD1riZlh-6" value="API&lt;br&gt;Grpc Reply" style="whiteSpace=wrap;html=1;aspect=fixed;fillColor=#f5f5f5;gradientColor=#b3b3b3;strokeColor=#666666;" vertex="1" parent="1">
          <mxGeometry x="440" y="310" width="180" height="180" as="geometry" />
        </mxCell>
        <mxCell id="j1v4Q9wKb9o2JD1riZlh-11" value="futdb API&lt;br&gt;" style="whiteSpace=wrap;html=1;aspect=fixed;" vertex="1" parent="1">
          <mxGeometry x="290" y="580" width="120" height="120" as="geometry" />
        </mxCell>
        <mxCell id="j1v4Q9wKb9o2JD1riZlh-18" value="" style="shape=flexArrow;endArrow=classic;startArrow=classic;html=1;rounded=0;entryX=0.5;entryY=1;entryDx=0;entryDy=0;exitX=0.5;exitY=0;exitDx=0;exitDy=0;exitPerimeter=0;" edge="1" parent="1" source="j1v4Q9wKb9o2JD1riZlh-1" target="j1v4Q9wKb9o2JD1riZlh-5">
          <mxGeometry width="100" height="100" relative="1" as="geometry">
            <mxPoint x="100" y="700" as="sourcePoint" />
            <mxPoint x="200" y="600" as="targetPoint" />
          </mxGeometry>
        </mxCell>
        <mxCell id="j1v4Q9wKb9o2JD1riZlh-20" value="" style="shape=flexArrow;endArrow=classic;startArrow=classic;html=1;rounded=0;exitX=0.4;exitY=0.008;exitDx=0;exitDy=0;exitPerimeter=0;entryX=0.578;entryY=1.019;entryDx=0;entryDy=0;entryPerimeter=0;" edge="1" parent="1" source="j1v4Q9wKb9o2JD1riZlh-2" target="j1v4Q9wKb9o2JD1riZlh-6">
          <mxGeometry width="100" height="100" relative="1" as="geometry">
            <mxPoint x="450" y="590" as="sourcePoint" />
            <mxPoint x="550" y="490" as="targetPoint" />
          </mxGeometry>
        </mxCell>
        <mxCell id="j1v4Q9wKb9o2JD1riZlh-22" value="" style="shape=flexArrow;endArrow=classic;startArrow=classic;html=1;rounded=0;exitX=0;exitY=0;exitDx=0;exitDy=0;entryX=1;entryY=1;entryDx=0;entryDy=0;" edge="1" parent="1" source="j1v4Q9wKb9o2JD1riZlh-11" target="j1v4Q9wKb9o2JD1riZlh-5">
          <mxGeometry width="100" height="100" relative="1" as="geometry">
            <mxPoint x="250" y="540" as="sourcePoint" />
            <mxPoint x="350" y="440" as="targetPoint" />
          </mxGeometry>
        </mxCell>
        <mxCell id="j1v4Q9wKb9o2JD1riZlh-23" value="API Rest" style="text;html=1;align=center;verticalAlign=middle;resizable=0;points=[];autosize=1;strokeColor=none;fillColor=none;" vertex="1" parent="1">
          <mxGeometry x="275" y="510" width="70" height="30" as="geometry" />
        </mxCell>
        <mxCell id="j1v4Q9wKb9o2JD1riZlh-25" value="" style="shape=flexArrow;endArrow=classic;html=1;rounded=0;entryX=-0.026;entryY=0.611;entryDx=0;entryDy=0;entryPerimeter=0;exitX=1.014;exitY=0.582;exitDx=0;exitDy=0;exitPerimeter=0;" edge="1" parent="1" source="j1v4Q9wKb9o2JD1riZlh-5" target="j1v4Q9wKb9o2JD1riZlh-6">
          <mxGeometry width="50" height="50" relative="1" as="geometry">
            <mxPoint x="280" y="430" as="sourcePoint" />
            <mxPoint x="330" y="380" as="targetPoint" />
          </mxGeometry>
        </mxCell>
        <mxCell id="j1v4Q9wKb9o2JD1riZlh-26" value="Grpc call&lt;br&gt;" style="text;html=1;align=center;verticalAlign=middle;resizable=0;points=[];autosize=1;strokeColor=none;fillColor=none;" vertex="1" parent="1">
          <mxGeometry x="275" y="375" width="70" height="30" as="geometry" />
        </mxCell>
        <mxCell id="j1v4Q9wKb9o2JD1riZlh-27" value="" style="shape=flexArrow;endArrow=classic;startArrow=classic;html=1;rounded=0;exitX=0.544;exitY=0.007;exitDx=0;exitDy=0;exitPerimeter=0;entryX=0.5;entryY=1;entryDx=0;entryDy=0;" edge="1" parent="1" source="j1v4Q9wKb9o2JD1riZlh-6" target="j1v4Q9wKb9o2JD1riZlh-3">
          <mxGeometry width="100" height="100" relative="1" as="geometry">
            <mxPoint x="500" y="260" as="sourcePoint" />
            <mxPoint x="538" y="80" as="targetPoint" />
          </mxGeometry>
        </mxCell>
      </root>
    </mxGraphModel>
  </diagram>
</mxfile>
